<?xml version="1.0" encoding="UTF-8" standalone="no"?>
<svg width="706" xmlns="http://www.w3.org/2000/svg" xmlns:xlink="http://www.w3.org/1999/xlink" height="341">
 <defs>
  <linearGradient id="linearGradient3461" y2="0.5" x2=".87171" y1=".75281" x1=".24886">
   <stop id="stop3457" stop-color="#fffa17" offset="0"/>
   <stop id="stop3459" stop-color="#9c9c00" offset="1"/>
  </linearGradient>
 </defs>
 <g id="layer1">
  <g id="g3463">
   <path id="path3439" d="m173.15 3.0018c-93.917 0-170.14 75.139-170.14 167.69 0 92.548 76.228 167.66 170.14 167.66 82.943 0 152.06-58.596 167.09-136.04l2.9351-0.0307 27.992-24.776 50.978 23.517 22.832-24.745 32.935 26.31c15.557-6.0845 37.774 4.0582 47.271-2.0262l19.125-25.082 45.572 22.964 61.051-0.9517 33.399-43.012 17.116-67.664-379.53 2.4868c-29.063-51.459-84.809-86.3-148.76-86.3zm-96.303 123.6c21.83 0.000046 39.547 16.361 39.547 36.503s-17.717 36.472-39.547 36.472c-21.83-0.000031-39.547-16.33-39.547-36.472s17.717-36.503 39.547-36.503z" stroke="#000" stroke-miterlimit="10" stroke-width="8.386" fill="url(#linearGradient3461)"/>
   <g fill="#fff">
    <g stroke-miterlimit="10">
     <rect id="rect3441" height="15.76" width="339.72" stroke="#000" y="106.64" x="341.96" stroke-width="7.628"/>
     <path id="path3443" opacity=".498" stroke-width="8.352" d="m171.48 3.3957c-90.701 0-164.32 74.732-164.32 166.8 0 5.814 0.32571 11.531 0.89859 17.192 8.4989-83.985 78.446-149.58 163.42-149.58 84.973 0 154.95 65.59 163.45 149.58 0.573-5.661 0.86798-11.378 0.86798-17.192 0-23.937-4.984-46.715-13.944-67.299h369.47v-10.202h-374.34c-27.507-53.069-82.365-89.296-145.51-89.296v-0.00001z"/>
    </g>
    <ellipse id="svg_4" rx="38.064" ry="33.402" cy="161.25" cx="77.631" stroke-width="8.352"/>
   </g>
  </g>
 </g>
</svg>
